<?xml version="1.0" encoding="utf-8"?>
<!-- Generator: Adobe Illustrator 19.0.0, SVG Export Plug-In . SVG Version: 6.00 Build 0)  -->
<svg version="1.1" xmlns="http://www.w3.org/2000/svg" xmlns:xlink="http://www.w3.org/1999/xlink" x="0px" y="0px"
	 viewBox="0 0 600 600" style="enable-background:new 0 0 600 600;" xml:space="preserve">
<style type="text/css">
	.st0{display:none;}
	.st1{display:inline;}
	.st2{fill:#ED1C24;}
	.st3{display:inline;fill:#ED1C24;}
	.st4{fill:#F2F2F2;}
	.st5{fill:#FF4D07;}
	.st6{fill:#FFFFFF;}
	.st7{fill:none;stroke:#FF4D07;stroke-width:0;stroke-linecap:round;stroke-linejoin:round;}
</style>
<g id="Layer_1" class="st0">
	<g id="XMLID_1_" class="st1">
		<path id="XMLID_9_" class="st2" d="M577.1,297.8L577.1,297.8c0.2,1.8,1.6,3.1,1.7,1.3c1.1-14.2,1.5-72.4,1.5-72.4l-3.4-4.7
			l-0.6-190.4l-5.8-2.8l-1.5-6.3l-177.4-2.1l-89.7,0.3l-127.6,2l-4.6,3.2l-70.7,1.8c0,0,0.8-5.1,0.7-7.5c-16.8-1-72.4,1.2-72.4,1.2
			l-0.7,13.1l1.9,97.9c0,0.8-1.1,0.9-1.2,0.1l-1.9-25.7l-5.6-6.9c0,0,3.8,109.2,7.1,196.8c0.1,2.9,3.1,5.8,3.2,8.7
			c0.7,19.7,1.2,38,1.4,53.4c-1.9-0.2-2.4-0.4-4.3-1.2L31.2,581l442.7-0.5l-1.7,1l44.6,0.9l0.2-1.7l0.7-0.1l2.3-0.5l53.6,1
			l-0.1-49.7l0.1-4.6l1.6,0.4l1.1-67.5l3.4-0.6l-3.1-72.1L577.1,297.8z M546.2,404.5c9.1,18.8,1,33.9-13.3,44.9
			c-36.8,28.4-80.3,36.5-125.5,39.3c15.2,15.5,37.9,29,7.9,41.7c-11.2,4.8-27.3,11-37.2,13.4c-15.1,3.7-38.3,1.7-52.9-3.5
			c-24.3-8.7-53.5-16.9-74.5-32.3c-7.8-5.7-21.9-25.2-32.7-24.5c-10.8,0.7-5.8,7.4-14.1,10.4c-4.4,1.6-11.6-0.7-15.4,1.2
			c-3.8,1.9-3,5.4-5.7,6.6c-5.2,2.4-2.9,5.5-10.4,5.9c-21.1,1.1-50.2-38.1-62-53.2c-30.8-39.6-67.6-92-52.3-145
			c7.7-26.6,21.7-34.4,9.5-63.8c-11-26.6-18-45.5-18.1-74.5c0-19.1-6.9-42.9,13-54.4c16.6-9.6,38.5,6.2,53.3-2.6
			c11.9-7.1,5.3-15,7.7-26.4c2.1-10.1,7.5-17.5,14.8-24.7c19.1-18.9,44.2-24,69.6-29.2c23.7-4.9,47.1-15.3,47.1,10.2
			c0,14.9-1,43.7-7.3,61.4c-8.8,24.9-30.6,47.7-44.2,70.5c-2.2,3.6-23.2,36.5-16.1,36.5c2.8-18.8,30.4-38,41.1-53.4
			c14.2-20.5,29.9-41.2,41.4-63.3c7.7-14.7,16.5-43.8,38.4-40.6c16.7,2.4,38.3,25.3,48.6,37.7c6.3,7.6,12.9,16.2,17.5,24.9
			c3,5.8,4.1,17.3,9.8,21.1c15.9,10.5,39.9-4,57,2.6c18.9,7.4,18,27.3,23.9,43.8c2.3,6.6,4.7,13.2,9.5,18.2
			c5.6,6,17.8,6.7,21.2,15.2c5.3-0.9,17.8,16.2,19.5,23.1c2,8.4-3.4,16.3-0.3,24.7c2.3,6.2,11.7,9.7,15.4,14.7
			c18,24.4,38.9,87.4-12.7,87.4C514.1,383,540.8,393.5,546.2,404.5z"/>
		<path id="XMLID_3_" class="st2" d="M441.2,523.7"/>
		<path id="XMLID_164_" class="st2" d="M224.1,257.6c1.4-0.3,13.9-7.1,14.4-8.2c5.6,6.2-15.4,22.7-18.5,27.3
			c-11.6,17.1-14.8,37-13.8,57.3c0.4,7.9,18.7,64.6,4.6,56.4c-1.8,1.7,11.5,11.6,12.6,13.2c-4.7,4.9-4.6-3.4-9.5,4.7
			c-2.5,4.2,5,17.8-5.3,17.9c-1.7-13.1-12.3-28.1-17.9-39.8c-9.3-19.8-14.7-41.1-24.1-60.7c-3.7-7.7-40.7-48-26.7-48.8
			c0.9-2.9-8.6-2.4-9.4-2.4c16.5-18.8,51.8-29.6,51.8-60.1c9.1-2.9,10.8,80.2,17.7,78.3C200.4,276.7,223.6,270.7,224.1,257.6
			C225.5,257.3,224.1,258.5,224.1,257.6z"/>
		<path id="XMLID_161_" class="st2" d="M404.4,229.3c-4.9-4.4-6.8-11.9-9.2-17.9c-1.2-3.2-2.7-6-4.3-9c-1.5-2.9-1.7-5.9-5-7.8
			c-2.8-1.6-6-2.2-9.2-2.7c-12.7-1.9-25.6-2.6-38.5-2.2c-0.3-3.9,1.8-7.6,4.8-10c1-0.8,2.1-1.2,3.3-1.6c5.7-2,11.5-3.8,17.4-5.5
			c3.2-0.9,7.9-3.6,11.4-2.5c1.9,0.6,1.8,1.6,2.5,3.3c1.1,2.5,2.5,4,5,5.3c20.4,10.3,31.2,18.7,26.3,44.5c-0.2-0.1-0.3-0.3-0.3-0.3
			l-0.1-0.2c0,0-3.2-14.5-7-12.7C395.9,212.8,405.5,230.3,404.4,229.3z"/>
		<path id="XMLID_160_" class="st2" d="M283.4,213.5c7-20.8,30.4-21.5,30.4-49.7c29,0,5.2,40.9-6.7,48.3
			c-11.9,7.4-26.2,9.7-38.1,17.6c-5.3,3.5-19.3,20.9-26.2,18.9C245.7,235.7,269.6,213.5,283.4,213.5
			C286.2,205.1,282.7,213.5,283.4,213.5z"/>
		<path id="XMLID_159_" class="st2" d="M423.4,299.4c7.9,0.1,4.4-4.5,6.6-8.2c8.4,8.2,7.6,10,5.4,22.5c-1.1,6.6-11.1,26.8-9.2,31.4
			c0.1-1-0.2-1.9-0.8-2.8c-1,0.3-10.7,25.9-12.1,28.1c-8.9,13.6-20.1,28-34.9,35.3c4.3,4.1,23.4-42,25.4-47.8
			c4.2-12.1,10.4-19.5,15.9-29.7l5.6-1.2c-0.2-6-0.7-12.1-1.4-18.1C423.7,306,423.4,298.9,423.4,299.4
			C431.4,299.5,423.4,301.3,423.4,299.4z"/>
		<path id="XMLID_158_" class="st2" d="M325.9,432.5c-0.6-2.7,13.1-7.8,13.6-14.1c0.2-3.1-14.8-30.4-16.1-33
			c-11.7-22.8-31.8-46.7-52.7-61.5c21.4-16.7,69,95.8,92.3,97c0.8,2.6-7.3,10-8.8,11.6c0.1-1.6-0.4-3-1.5-4c-1.6,2.1-2.5,4.4-2.7,7
			c-0.1-0.7-5.5,13.7-2.8,16C326.8,461.1,350.1,420.6,325.9,432.5C325.2,429.3,336.8,427.2,325.9,432.5z"/>
		<path id="XMLID_157_" class="st2" d="M313.1,437.3c-21.7,11.7-25.8,19.6-48.9,11.3c-8.7-3.1-38-19.6-34-33.4
			c9.7,4.2,16.8,12.9,26.5,16.9c10.9,4.5,21.3,2.5,32.7,3.1C294.3,435.4,312.1,436.5,313.1,437.3C306.1,441.1,312.8,437,313.1,437.3
			z"/>
		<path id="XMLID_156_" class="st2" d="M451.9,251.9c5.3,2.3,29.7,36.5,26.3,44.3c-5.5-1.1-21.4-42.6-34.7-30.9
			c-0.5,1.3,0,2.2,1.3,2.7c-3.4,1.3-5.1-0.2-5.1-4.5C446.5,262.3,448.8,253.4,451.9,251.9C457.1,254.1,449.7,253,451.9,251.9z"/>
		<path id="XMLID_155_" class="st2" d="M240.3,299.7c3.9,1.1,13.1,7.6,13.4,7.9c4.8,4,7.6-6.4,7.6,8.7
			C252.7,310.3,223.1,316.6,240.3,299.7C246,301.6,238.7,301.3,240.3,299.7C245.2,301.1,238.4,301.6,240.3,299.7z"/>
		<path id="XMLID_154_" class="st2" d="M442.3,216.6c-6.4,6.5-4.4,6.3-12.5,6.3C426.8,212.8,440.5,211.9,442.3,216.6
			C436,223.1,441.6,214.8,442.3,216.6z"/>
		<path id="XMLID_153_" class="st2" d="M359.5,528.8c6.5-1.9,17.3-5.9,23.8-3.6C375.3,528.1,362.8,530.6,359.5,528.8
			C365.9,526.9,361.4,529.8,359.5,528.8z"/>
		<path id="XMLID_152_" class="st2" d="M325.8,432.4c-4.2,4.9-2.2,3.6-11.6,3.6C314.2,434.9,324.4,432.7,325.8,432.4z"/>
		<path id="XMLID_147_" class="st2" d="M410.8,226.8c-1.6-1.2-1.2-2-0.1-3.2C410.7,224.8,410.7,225.6,410.8,226.8z"/>
	</g>
	<path id="XMLID_2_" class="st3" d="M581.3,472c0,0,1.7,44.8,0.6,59c-0.1,1.8-1-3.9-1-2.1c0.2,16.3-0.1-23.7-1.1-39.9L581.3,472z"/>
</g>
<g id="Layer_3">
	<rect id="XMLID_74_" x="77" y="68" class="st4" width="447" height="455"/>
</g>
<g id="Layer_2">
	<g id="XMLID_7_">
		<path id="XMLID_24_" class="st5" d="M536.1,297.8L536.1,297.8c0.2,1.5,1.3,2.7,1.5,1.1c0.9-12.1,1.3-61.6,1.3-61.6l-2.9-4
			l-0.6-161.9l-5-2.4l-1.3-5.4l-150.8-1.8L302,62.1l-108.5,1.7l-3.9,2.7L129.5,68c0,0,0.7-4.3,0.6-6.4c-14.2-0.8-61.6,1-61.6,1
			L68,73.8l1.6,83.2c0,0.7-1,0.7-1,0.1l-1.6-21.9l-4.7-5.9c0,0,3.2,92.9,6,167.4c0.1,2.5,2.6,5,2.7,7.4c0.6,16.7,1,32.3,1.2,45.4
			c-1.6-0.2-2-0.3-3.6-1L72,538.6l376.5-0.5L447,539l37.9,0.8l0.2-1.5l0.6-0.1l1.9-0.4l45.6,0.9l-0.1-42.2l0.1-3.9l1.4,0.3l0.9-57.4
			l2.9-0.5l-2.6-61.3L536.1,297.8z M509.9,388.5c7.8,16,0.8,28.9-11.3,38.2c-31.3,24.2-68.3,31.1-106.8,33.4
			c12.9,13.2,32.2,24.6,6.7,35.5c-9.5,4-23.2,9.4-31.6,11.4c-12.9,3.1-32.5,1.5-45-3c-20.7-7.4-45.5-14.3-63.4-27.5
			c-6.6-4.9-18.6-21.4-27.8-20.8c-9.2,0.6-4.9,6.3-12,8.8c-3.7,1.3-9.9-0.6-13.1,1c-3.2,1.6-2.6,4.6-4.8,5.7c-4.5,2.1-2.4,4.7-8.8,5
			c-17.9,0.9-42.7-32.4-52.7-45.3c-26.2-33.7-57.4-78.2-44.5-123.3c6.5-22.7,18.4-29.2,8.1-54.2c-9.4-22.6-15.3-38.7-15.4-63.4
			c0-16.3-5.8-36.5,11.1-46.3c14.1-8.2,32.7,5.3,45.3-2.2c10.2-6,4.5-12.7,6.5-22.4c1.8-8.6,6.4-14.9,12.5-21
			c16.3-16.1,37.6-20.4,59.1-24.9c20.2-4.2,40.1-13,40.1,8.7c0,12.7-0.8,37.2-6.2,52.2c-7.5,21.2-26.1,40.6-37.5,59.9
			c-1.8,3.1-19.7,31.1-13.7,31.1c2.3-16,25.9-32.3,35-45.4c12.1-17.4,25.4-35,35.2-53.8c6.6-12.5,14-37.2,32.6-34.5
			c14.2,2.1,32.6,21.5,41.4,32.1c5.4,6.4,11,13.7,14.8,21.2c2.5,4.9,3.5,14.7,8.4,18c13.5,8.9,34-3.4,48.5,2.2
			c16.1,6.3,15.3,23.3,20.3,37.3c2,5.6,4,11.2,8.1,15.5c4.8,5.1,15.1,5.7,18,12.9c4.5-0.8,15.2,13.8,16.5,19.6
			c1.7,7.1-2.9,13.9-0.3,21c2,5.3,9.9,8.3,13.1,12.5c15.3,20.7,33.1,74.3-10.8,74.3C482.6,370.2,505.3,379.1,509.9,388.5z"/>
		<path id="XMLID_23_" class="st5" d="M420.6,489.9"/>
		<path id="XMLID_22_" class="st5" d="M236,263.6c1.2-0.3,11.8-6,12.2-7c4.8,5.3-13.1,19.3-15.7,23.2c-9.8,14.6-12.6,31.5-11.7,48.7
			c0.3,6.7,15.9,55,3.9,48c-1.5,1.4,9.8,9.9,10.7,11.2c-4,4.2-3.9-2.9-8.1,4c-2.2,3.6,4.3,15.1-4.5,15.2
			c-1.5-11.1-10.5-23.9-15.2-33.9c-7.9-16.8-12.5-35-20.5-51.6c-3.1-6.5-34.6-40.8-22.7-41.5c0.7-2.5-7.3-2-8-2.1
			c14-16,44-25.2,44-51.1c7.7-2.4,9.1,68.2,15,66.6C215.9,279.8,235.5,274.7,236,263.6C237.2,263.3,236,264.4,236,263.6z"/>
		<path id="XMLID_20_" class="st5" d="M389.3,239.5c-4.2-3.8-5.8-10.1-7.8-15.2c-1-2.7-2.3-5.1-3.6-7.7c-1.3-2.5-1.5-5-4.2-6.6
			c-2.4-1.4-5.1-1.9-7.8-2.3c-10.8-1.6-21.8-2.2-32.7-1.9c-0.3-3.3,1.5-6.5,4.1-8.5c0.8-0.6,1.8-1,2.8-1.3c4.9-1.7,9.8-3.2,14.8-4.7
			c2.7-0.8,6.7-3.1,9.7-2.1c1.6,0.5,1.5,1.4,2.1,2.8c0.9,2.1,2.1,3.4,4.2,4.5c17.3,8.8,26.6,15.9,22.4,37.8
			c-0.1-0.1-0.3-0.3-0.3-0.3l-0.1-0.2c0,0-2.7-12.4-6-10.8C382.1,225.4,390.3,240.4,389.3,239.5z"/>
		<path id="XMLID_19_" class="st5" d="M286.4,226c5.9-17.7,25.9-18.3,25.9-42.2c24.7,0,4.4,34.8-5.7,41.1
			c-10.1,6.3-22.3,8.2-32.4,15c-4.5,3-16.4,17.7-22.3,16C254.3,244.9,274.7,226,286.4,226C288.8,218.9,285.8,226,286.4,226z"/>
		<path id="XMLID_18_" class="st5" d="M405.5,299.1c6.7,0.1,3.8-3.8,5.6-7c7.1,7,6.4,8.5,4.6,19.1c-1,5.6-9.5,22.8-7.8,26.7
			c0.1-0.9-0.2-1.6-0.7-2.3c-0.8,0.2-9.1,22-10.3,23.9c-7.6,11.6-17.1,23.8-29.7,30.1c3.6,3.5,19.9-35.7,21.6-40.6
			c3.6-10.3,8.8-16.6,13.5-25.3l4.7-1c-0.2-5.1-0.6-10.3-1.2-15.4C405.8,304.7,405.5,298.7,405.5,299.1
			C412.2,299.2,405.5,300.8,405.5,299.1z"/>
		<path id="XMLID_17_" class="st5" d="M322.5,412.3c-0.5-2.3,11.2-6.6,11.5-12c0.2-2.6-12.6-25.8-13.7-28.1
			c-9.9-19.4-27.1-39.7-44.8-52.3c18.2-14.2,58.7,81.5,78.5,82.5c0.7,2.2-6.2,8.5-7.5,9.8c0.1-1.4-0.3-2.5-1.3-3.4
			c-1.4,1.8-2.2,3.7-2.3,6c-0.1-0.6-4.7,11.7-2.4,13.6C323.3,436.6,343.2,402.2,322.5,412.3C321.9,409.6,331.8,407.8,322.5,412.3z"
			/>
		<path id="XMLID_16_" class="st5" d="M311.7,416.4c-18.4,10-22,16.7-41.6,9.6c-7.4-2.7-32.3-16.7-28.9-28.4
			c8.2,3.5,14.3,11,22.5,14.3c9.3,3.8,18.1,2.2,27.8,2.6C295.7,414.8,310.8,415.7,311.7,416.4C305.7,419.6,311.4,416.1,311.7,416.4z
			"/>
		<path id="XMLID_15_" class="st5" d="M429.7,258.7c4.5,1.9,25.2,31.1,22.3,37.7c-4.7-1-18.2-36.2-29.5-26.3c-0.4,1.1,0,1.8,1.1,2.3
			c-2.9,1.1-4.3-0.2-4.3-3.8C425.1,267.5,427.1,260,429.7,258.7C434.2,260.6,427.8,259.6,429.7,258.7z"/>
		<path id="XMLID_14_" class="st5" d="M249.8,299.4c3.3,1,11.1,6.4,11.4,6.7c4,3.4,6.4-5.4,6.4,7.4
			C260.3,308.4,235.1,313.7,249.8,299.4C254.6,301,248.4,300.7,249.8,299.4C254,300.6,248.2,301,249.8,299.4z"/>
		<path id="XMLID_13_" class="st5" d="M421.6,228.7c-5.4,5.6-3.7,5.3-10.6,5.3C408.3,225.5,420,224.7,421.6,228.7
			C416.2,234.3,421,227.2,421.6,228.7z"/>
		<path id="XMLID_12_" class="st5" d="M351.1,494.2c5.5-1.6,14.7-5,20.3-3.1C364.6,493.6,353.9,495.7,351.1,494.2
			C356.6,492.6,352.7,495.1,351.1,494.2z"/>
		<path id="XMLID_11_" class="st5" d="M322.5,412.2c-3.6,4.2-1.9,3.1-9.8,3.1C312.6,414.3,321.2,412.5,322.5,412.2z"/>
		<path id="XMLID_10_" class="st5" d="M394.7,237.4c-1.4-1-1-1.7-0.1-2.7C394.7,235.7,394.7,236.3,394.7,237.4z"/>
	</g>
	<path id="XMLID_4_" class="st2" d="M539.7,445.9c0,0,1.5,38.1,0.5,50.2c-0.1,1.5-0.8-3.3-0.8-1.8c0.1,13.8-0.1-20.2-0.9-34
		L539.7,445.9z"/>
	<g id="XMLID_28_">
		<g id="XMLID_84_">
			<g id="XMLID_27_">
				<g id="XMLID_29_">
					<path id="XMLID_30_" class="st6" d="M453.1,30.9c10.1-1.1,32.2-1.6,31.7,0.3c0.4-1.9,0.4-1.9,15.5-3.3
						c-0.3,1.3,13.2,0.9,21.8,0.8c-7.1-0.9-16.8-1.1-36.4-1.4C468,30.2,431.1,26,414.4,29C426.5,29.7,438.3,31.7,453.1,30.9z"/>
					<path id="XMLID_31_" class="st6" d="M533.1,39.4l2.6-0.8l-30.9,1.2C511.1,39.2,532.1,38.5,533.1,39.4z"/>
					<path id="XMLID_32_" class="st5" d="M564.8,107.7c-1.4-2.8-2.2,12.9-3.5,12.6c2.8-0.6,0.6,24.6,0.9,38.2l2.2,5.4
						c1.6-13.1,0.9-46.3,1.1-74.4L564.8,107.7z"/>
					<path id="XMLID_33_" class="st6" d="M563.2,133.1l1.4,8.9C564.2,134.5,564,117.4,563.2,133.1z"/>
					<path id="XMLID_35_" class="st6" d="M570.8,114.1c0.2-22-0.9,13.2-1.4-8.9C569.8,112.6,569.9,121.2,570.8,114.1z"/>
					<polygon id="XMLID_36_" class="st5" points="566.5,206.1 565.4,159.3 564.5,178.7 					"/>
					<path id="XMLID_37_" class="st5" d="M561.8,208.6c0-6.1,0.8-15.7,1.6-7c-1.7,16.7,0.7,27.1-0.8,42.7l-0.7-14.9
						c-1.8,2,1.8,31-1.4,30.3c2.3,20.1,2.7-15.3,4.4,10.8c-0.6-24.6,0.1-42.8,0.7-63.5c-0.7,6-0.5,8.4-1.1,16.9
						c-0.1-14.7-1.1-34.5-1.3-51.7C561.1,181.5,563,194.2,561.8,208.6z"/>
					<path id="XMLID_38_" class="st5" d="M561.3,283.2c-0.2,15.9-0.2,40.3,2.2,44.6c1.7-16.7-0.3-19.7-1.3-27.2
						c0.4-4.8,0.6-20.7,1.8-14.2C563.5,288.6,562.3,276,561.3,283.2z"/>
					<path id="XMLID_39_" class="st5" d="M560.9,345.5l2.2,11.6l-0.4-7.4l1.5-0.9c-0.4-1.3-3.2-6.9-3-22.8
						C560.1,334.3,561.5,337.1,560.9,345.5z"/>
					<path id="XMLID_40_" class="st5" d="M571.6,349.3c-1.1,10.8-0.4,17,0.2,29.4c-0.2-17.2-0.1-41.6-1-46.8l0.4,1.4
						c0,0-1.1-16.2-2.6-27.6C570,323.2,567.7,354.5,571.6,349.3z"/>
					<path id="XMLID_41_" class="st5" d="M571.8,327.3l1.3,12.5L571.8,327.3z"/>
					<polygon id="XMLID_42_" class="st5" points="561.4,394.6 562.1,370.3 561.5,376.3 					"/>
					<path id="XMLID_43_" class="st5" d="M568,365.6c-0.3,19.5,1.7-10.6,1.7,7.7c0.2,5-0.1-26.9-1.1-28.4
						C568.1,349.7,569.8,363.6,568,365.6z"/>
					<path id="XMLID_44_" class="st5" d="M561.3,410.5l1.6,20L561.3,410.5z"/>
					<path id="XMLID_45_" class="st5" d="M560.2,460.4l1.2,3.9c-1,19.4,0.7,45.5-1.8,59.6c1.4-3.3,2.9,8.1,3.4-9
						c-0.8-2.6-0.7-8.7-1.7-7.7c0.3-7.3,1.3-5.8,1.7-10.6c-1.3-12.5-0.3-31.9-1.4-41.9c0.2,4.9,0,6.1-0.2,9.7
						c-2-21.3,2.9-25-0.4-34.3C562,437.6,559.7,450.5,560.2,460.4z"/>
					<path id="XMLID_46_" class="st5" d="M568.1,458.7l0.4-17.1c1.5,5.3,0.1,20.9,1.5,23.6c0.9-1,1.3-18,2-11.8
						c-3.6-2.1-0.2-23.3-4.2-14.5c-0.5-22.1,2.2-6.8,2-30.1l-1.9-6.6C568.8,428.2,567.1,432.7,568.1,458.7z"/>
					<path id="XMLID_47_" class="st5" d="M567.5,524.6l-1.2,8.3l1.7-4.5c0.1,8.3-0.2,15.8-0.7,22.7c-0.3,3.9-0.6,7.5-0.8,11.1
						c-0.3,3.7-0.6,7.1-1,10.2c-4.9-0.4-9.2-0.9-13-1.3c-1.8-0.2-3.7-0.4-5.4-0.6c-1.7-0.2-3.4-0.4-5.1-0.5
						c-6.8-0.6-13.2-1-19.7-0.7c-28.7,2.3-55.4-1.1-84.7-0.8c-14.3,1.5,13.7,0.9,15.2,1.8c-4.1,2.9-13.9-1.5-20.6,0.8
						c-1.9,2.1,30,2.2,42.6,3.5c10.9-0.3,10.8-0.9,14.1-2.1c2.8,1.2,13.9,1.5,16.7,2.7c11.4-0.8,20.1-0.5,28.7-0.1
						c4.3,0.2,8.6,0.3,13.3,0.4c1.4,0,2.8,0,4.3,0c1.6,0,3.2-0.1,4.9-0.1c3.3-0.1,6.7-0.2,10.1-0.4c0.5,0.1,1,0.2,1.3,0.2
						c0.2-0.7,0.4-0.5,0.4,0.4c-1.5,0.2-7.1,0.1-11.1,0c-4-0.1-6.5-0.2-2.6-0.2l13.5,0l0-2.8l-0.3,1.5c-0.2-2.9-0.4-6-0.5-9.2
						c0-1.6-0.1-3.2-0.1-4.9c0-1.6-0.1-3.2-0.1-4.9c-0.1-5.4,0-11.1,0.2-16.7c0.3-11.1,0.9-21.5,1.5-26.8c-0.5,8.4-1.8,14.2-2.3,4.3
						l1.8-8.1l-2.7-21.4C567.7,502.6,564.2,521.4,567.5,524.6z"/>
					<path id="XMLID_48_" class="st5" d="M570.8,500.9c1-25.5-2.7,3-1.9-24.9l0.2,29.4L570.8,500.9z"/>
					<path id="XMLID_49_" class="st6" d="M511.2,573.2l-12.6-1.2C505.4,574.5,525.2,571.1,511.2,573.2z"/>
					<polygon id="XMLID_50_" class="st6" points="464.6,573.2 471.3,570.8 459.4,572.2 					"/>
					<path id="XMLID_51_" class="st5" d="M422.2,570.4c-9.5,1.2,1.9,2.2,12.8,1.9C425.1,572.1,420,571.1,422.2,570.4z"/>
					<path id="XMLID_52_" class="st6" d="M352.3,565.8c21.4,0-18.9-0.6-3.6-2.7C345.9,564.1,335.1,565.5,352.3,565.8z"/>
					<path id="XMLID_53_" class="st5" d="M283.1,560.3c7.7-0.4,10.9,0,11.9,0.5C289.4,560.8,284.9,560.6,283.1,560.3z"/>
					<path id="XMLID_54_" class="st5" d="M549.6,567.5c2,0,4.1,0,6,0.1C553.6,567.6,551.7,567.6,549.6,567.5z"/>
					<path id="XMLID_55_" class="st5" d="M544.9,567.5c1.6,0,3.2,0,4.7,0c-0.9,0-1.7,0-2.4,0C546.4,567.5,545.6,567.5,544.9,567.5z"
						/>
					<path id="XMLID_56_" class="st5" d="M386.2,562.5C386.2,562.5,386.2,562.5,386.2,562.5c0.6,0.1,1.2,0.1,1.7,0.2L386.2,562.5z"
						/>
					<path id="XMLID_57_" class="st5" d="M561.7,70.3c-0.1-4.1-0.2-7.4-0.1-9.9c0.1,3.3,0.1,6.6,0.2,9.8
						C561.7,70.2,561.7,70.2,561.7,70.3z"/>
					<path id="XMLID_58_" class="st5" d="M564.9,58.8c1.5,17.5-3.5,18.8-2.4,47.2c-0.3-11.5-0.6-23.5-0.8-35.8
						C564,53.9,562.9,82.8,564.9,58.8z"/>
					<path id="XMLID_59_" class="st5" d="M567.7,296c0,0.3,0,0.6,0.1,1C567.8,298.7,567.8,297.8,567.7,296z"/>
					<polygon id="XMLID_60_" class="st6" points="33.7,259.2 34.4,259.3 33.5,275 					"/>
					<path id="XMLID_61_" class="st6" d="M34.9,257l1.2-26.6l0.4,157.9l-0.9-5.1c-0.3,0.5-0.4-7.4-0.5-19.4c0-12.1,0-28.4,0.1-44.6
						C35.3,286.7,35.4,254.7,34.9,257z"/>
					<path id="XMLID_62_" class="st6" d="M33.9,249.4c-2.7-15.3,1-25.5-0.9-44.3c1.3,12.5,2.7,21.4,2,33.6L33.9,249.4z"/>
					<path id="XMLID_63_" class="st7" d="M28.7,196.7c0.5-8.4-0.6-18.5-0.2-23.3C30.6,176.4,29,189.5,28.7,196.7z"/>
					<path id="XMLID_64_" class="st5" d="M20.9,174c0-1.3,0-2.6,0-3.9c0.1,1.5,0.3,3,0.4,4L20.9,174z"/>
					<path id="XMLID_65_" class="st5" d="M21.3,174.1l0.9,0.2C21.8,177.1,21.6,176.4,21.3,174.1z"/>
					<path id="XMLID_66_" class="st5" d="M20.9,170.1c-0.3-3.5-0.6-7.6-1-9.8l-0.1,3.6c-0.2-5-1-13.7-0.5-16.1
						c-0.2,9.8,0.5,9.9,1.8,10.2l0.2-15.9C24.3,145.3,21.1,156,20.9,170.1z"/>
					<path id="XMLID_67_" class="st7" d="M20.2,120l1.8,16.3C20.2,140.8,20.1,126.1,20.2,120z"/>
					<path id="XMLID_68_" class="st5" d="M22.2,96c0.5,3.8,0.3,19.7,1.1,10.1c0.3,2.6,0.3,5.7,0.3,8.9
						C23.1,104.3,21.1,114.3,22.2,96z"/>
					<path id="XMLID_69_" class="st5" d="M23.6,115c0,1.3,0.1,2.7,0.1,4.6C23.6,118.1,23.6,116.5,23.6,115z"/>
					<path id="XMLID_70_" class="st7" d="M31.2,285.5c0.2-2,0.5-1.9,0.7-1L31.2,285.5z"/>
					<path id="XMLID_71_" class="st5" d="M24,63.4l0-6.1c0,1.8,0,3.4,0.1,4.9L24,63.4z"/>
					<path id="XMLID_72_" class="st5" d="M40.4,570.5c0.5-21.3,1.1-41.6,0-72.3c-2.2,0.7-0.6-12.4-2.9-14.2
						c0.3,31.9-1.4-120.2-2.3-94.7l1,7.6l-2.3-7.9c0.6-15.3,2.4-36.2,1.1-46.6c0.7-2.9,0.1,130.3,0.8,125.3
						C33,479.4,33,289.3,31.9,284.4l1.4-2.1c-1.5-23.6-3.5-38.8-4.5-58.6l1.7-4.5c-0.6,14.6,0.6,18.5,1.3,33.4
						c-0.3-25.8,0.7-30.4,0.4-50.1c-2.2,0.7-1.1,16.9-2.3-7.9c0.9-7.1,3.3,9.3,2.9-12.8c0.6-26.8-2.6-21.4-2.8-44.8l-0.8,15.7
						c-0.1-8.6-0.6-24.6,0.6-32.9c-0.2,9.8,1.1,34.5,3.3,33.8c-0.5-9.9,0.3-31.7,0.2-40.3l1.5,5.3c1.4-9.4-0.7-14.9,0.6-26.8
						c-0.9-11.2-2.2,6.8-2.8,0.5c0.5-2.3,1.4-24.2,0.3-31.7c-3.2,5.3,1,25.9-2.2,39.9l0.6-20.7c-3.2-13,0,33.1-2.5,26.3
						c-3.3-15.5,3.2-32.3-1-46.8c-0.8,9.6-0.9,40.2-2,36.2c1.2-10.8-1.1-18.5-1.5-33.4c0,0,0.4-4.5,0.7-9c0.4-6.6,0.7-13.3,0.7-13.3
						c-0.5-5.9-0.8-6.9-1-5c-0.2,1.9-0.4,6.4-0.7,11.1c0.2-4.9,0.4-10.1,0.5-15.6c5.3,0.1,10.8,0.2,16.5,0.2c4.4,0,9,0.1,13.7,0.1
						c7.9,0,16.3,0,24.8,0c17.1,0,35,0.1,51.5,1.1c22.1-0.5,2.8-1.4,12.9-2.5c11.8,2,31.7,0.3,44,0.4c3.6,0.1,10.2-1.8,6.7-2.6
						l-30.9,1.2c1.5-1-3-2.7-14.1-2.5c7.6,3.8-43.5-2.3-45.8,1.9l0.4-1.9l-39.5,1.3l1.2,0.3c0.1-0.2-4-0.1-10.2,0.1
						c-1.5,0-3.2,0.1-5,0.1c-0.9,0-1.8,0.1-2.8,0.1c-1.5,0-3,0.1-4.5,0.1c-6.7,0.1-14,0.2-21.3,0.3c0.1,6.5,0.1,13,0.1,19.4
						c0,1.6,0,3.2,0,4.7c0,1.1,0,2.1,0,3.1c0,1.8-0.1,3.5-0.1,5.2c-0.1-0.8-0.1-2.1-0.2-3.8c0-0.8,0-1.7-0.1-2.7c0-1.5,0-3.1,0-4.7
						c-0.1-7.3-0.1-15.5-0.2-21.8c5.6-0.1,9.7-0.2,10.3-0.4c0.5-0.2-2.5-0.6-11.8-1c0,0.2,0,0.6-0.1,1.1c0-0.4,0-0.7,0-1.2
						c7.3-0.3,16.4-0.3,26.6-0.3c2.8,0,5.8,0,8.9,0.1c3,0,6.1,0.1,9.3,0.1c12.8,0.2,27.3,0.4,41.9,0l-5.8-1.3
						c31-1.8,72.1,0.6,106.5,0.2l-10.2,1.8c12.1,0.7,27.6,2.1,39,0.6c-14.7,0.1-7.1-0.9-4.5-1.7c19.8-1,49,0.1,76.1-0.6
						c0,0-1.3,0.4-0.2,0.6l28.4-1.1c13.4,0.3,18,1.3,26.3,2.5c5-0.2,17.2-0.2,12.6-1.3c-2.6-0.1-5.3-0.2-7-0.1c14.4-2,10,0.6,28-0.6
						c-13.9,1.6,4.3,2.3,2.7,4c21-0.7,1.9-3,4.6-3.7c25.5,1,28.8,2.4,54.4,2.7c1.5-1-18.2-0.7-20.4-1.9c7.3,0.3,15.9,0.2,17.2-0.2
						L438.6,25c26.6,1.2,52.3,1.6,81.9,0.7l-2.3-0.5l18.4,0l-6.6,1.9c4.9-0.2,10.1,0.1,14.6,0.2c2.4,0.1,3.8,0.1,7.8,0.1
						c3.3-0.1,6.3-0.2,8.8-0.6l-6.5-0.1l21.3-0.6l0,1.6l-0.1-1.5c-7.8,0.6-15.2,1.2-22.1,1.8c6.2,0.2,12.9,0.1,20.4-0.1
						c0.2,5.9,0.4,12.3,0.8,19.2c0.1,1.7,0.2,3.5,0.2,5.3c0,1.1,0.1,1.3,0.1,1.9c0,0.5,0.1,1,0.1,1.5c0.2,2.1,0.3,4.2,0.5,6.3
						c0.6,8.6,1.1,17.9,1,27.7c-1.3,2.8-1.5-8.3-1.8-20.5c-0.1-3-0.2-6.2-0.3-9.1c-0.2-3.3-0.3-6.5-0.4-9.3
						c-0.4-8.8-0.9-14.7-1.7-15.4c-0.1,3.5-0.2,7.5-0.4,11.8c-0.1,3.3-0.2,6.9-0.3,10.3c-0.1,5.3,0,10.2,0.4,12.8
						c0.9-1,0.9-7.1,0.9-13.3c1.7,22.5-1.1,56.1,1.9,70.2l1.1-16.9c0.3,19.6-3.2,32.3-1.3,38.9l-3.3-15.5c1.6,20,1.3,45.6,2.5,64.3
						c1.9,0.5-0.1-26.9,0.3-25.6l1.4,8.9c-1.1,29.1-1.2,8.3-2.3,43.5l1.3,0.3c-2,11.8,1.8,43.3-1.6,31.4l0.8-9.6l-1.5,0.8l1.1,40.7
						c-1.2-4-0.8,15.7-2.4,10.4l1.4,15c-2.2,6.8-2.6-27.6-4.3-29.2c-1,0.5-0.9,7.6-0.7,11.1c-1.6-18.1,2.2-27,2.3-45l-1.4-8.9
						l1.9,0.5c-0.4-7.4-1.6-13.9-2.4-16.5c2.6-17.7-0.5-36.8,0-63.7c1.1,22.3,1.8-14.2,2.3-10.4c0-12.2-3.4-42.5-1-52.9
						c0.9-7.1,1.4,15,1.8-2C571,86,570,78.4,569.1,85.5c-0.2-7.3-0.3-14.9-0.3-22.8c0-9.6,0-19.5,0-29.4c-13.1,0-26.3-0.1-39.1-0.1
						l6.4-1.3c-16.9-1.1-33.2,0.7-42.1,2.1c-2.3-0.5-3.6-0.1-1-0.9c-21.5-2.1-27.6,2.6-62.9,2.1c2,1.8,17.9,2,29.1,1.1l-2.9,2.1
						c30.6,0.1,65-0.3,89.7-1.6l-11.4,1.5c9.3,1.2,13.5,0.9,16.8,0.3c1.7-0.3,3.3-0.6,5.3-0.7c2-0.2,4.4-0.2,7.4,0.1
						c-0.2,2-0.4,4.4-0.8,7.1c0.2,3.5,0.3,4.7,0.5,4.6c0.1-0.2,0.3-1.7,0.4-3.4c0.1-1.7,0.3-3.6,0.5-4.3c0.2-0.7,0.3-0.4,0.6,2.6
						c-0.3,6-1.2,5.3-2,5.7c-0.4,0.2-0.8,0.6-1.1,1.9c-0.1,0.3-0.1,0.7-0.2,1.1c-0.1,0.5-0.1,1.1-0.2,1.8c-0.1,1.3-0.2,3.1-0.2,5.3
						c-0.1-6.3-0.2-12.7-0.3-19.4c-6.8,0.1-13.6,0.2-20.6,0.2c-7.7,0.1-15.5,0.1-23.4,0.2c-15.7,0.1-31.6,0.1-47.6,0.2
						c-32,0.1-64.1,0.2-95.1,0.3c-1.3,0.4,2.3,0.5,6,0.7c-23.9,2.8-216.7-4.7-222.9,0.7c-3.5-0.8,7.7-1.7-7-1.6
						c-1.3,0.4-5.1,0.9-1.6,1.7c-16.5-1.3-35.5-1.4-55.4-1.3c-10,0.1-20.2,0.1-30.4,0.2c-5.1,0-10.3,0-15.4,0c-2,0-4,0-6-0.1
						C40,42.1,38,42,36,42c-0.1,1.9-0.1,3.9-0.2,5.8c-0.1,2-0.2,4-0.3,6.1c0.9-1,1.4,8.9,2,9.1c-2.1,15.4,0.1,41.6-1.1,56l1-4.7
						l0,45.3c0.4,1.3,0.4-4.8,0.5-8.4c0.5,9.9-0.7,12.1-1.6,13.1l2.3,20.2c-3.8,59.1,2.1,132.7-0.3,200.7c1.8,10.2,2.5,19,2.7,36.2
						l0.5-8.4c1.5,17.5-0.9,1-0.2,15.9c1.1,10.1,2.7,3.1,1.7-10.6c0.6-8.6,1.2-3.3,1.7,2.9C44.8,475.5,43.6,526.3,40.4,570.5z"/>
					<path id="XMLID_73_" class="st5" d="M92.9,555.9c5.9,0.8-23.4,0.7-9.1,2.5c45.7,3.5,119.8,0.7,173.9,3.5
						c14.4,1.4,18.3,1.4,31.2,2.1c0.2-0.3,0.3-0.7-0.3-1c14.7,0.1,38.5-0.4,53.2,0.5c4.2-0.4,7.3-1.8-0.8-1.4
						c22.4-1.2,38.6,2.6,51.2,1.5c-10.9-0.9,10.8-1.3-2.2-2.1c23.5-0.2,21.3,4.8,39.9,5.3c1.1-0.4,2.2-0.8-1.5-0.9
						c20.2,2.1,62.1-1.2,64.3,2.3l8.2-1.4c8.9,1.1,6.7,1.9,21.5,2.4c9.7-0.5-0.4-1.3,3.2-1.8c1.8,0.6,8.1,0.9,15.6,1.1
						c7.9,0.2,14.7,0.5,21.4,1.2c0.1-1.2,0.3-2.3,0.5-3.2c0.6,0.2,0.7,1.8,0.4,4.2c-1.8-0.1-4.1-0.4-6.5-0.6
						c-2.4-0.3-4.9-0.6-7.3-0.8l-0.9-0.1l-1-0.1l-2-0.1c-1.3-0.1-2.7-0.1-4-0.1c-2.6,0-5,0.1-7.2,0.5c-0.4,0.4,1.3,0.6,3.7,0.6
						c-61.4-0.5-108.2-6.7-158.6-5c-11.1-1.5-19.6-0.1-24.6,1.4c9.1,0.7,35.1,2.2,35.7-0.9l15.8,2c6-0.1,5.9,2.9,8.4,3.5
						c-11.1-0.4-23.7,2.7-8.7,3.8c-29.3,0.4,9.4-6.5-16.5-5.7l-3.8,2.2c4.9-1.2-17.5-2.2-25.9-1.5l3.5,0.4
						c-69-1-161.2-0.1-237.5,0.7c-18.8-5.5-56,1.9-73.6-2.5c-8.4,0.7,12,2-4.2,2.6c-8.1,0.3-8.8-1.1-8.4-1.5
						c-2.4,0.1-4.9,0.3-7.4,0.4C26.7,564.2,40.8,559.4,92.9,555.9z"/>
				</g>
			</g>
		</g>
	</g>
</g>
</svg>
