<?xml version="1.0" standalone="no"?>
<!DOCTYPE svg PUBLIC "-//W3C//DTD SVG 20010904//EN"
 "http://www.w3.org/TR/2001/REC-SVG-20010904/DTD/svg10.dtd">
<svg version="1.0" xmlns="http://www.w3.org/2000/svg"
 width="558.000000pt" height="558.000000pt" viewBox="0 0 558.000000 558.000000"
 preserveAspectRatio="xMidYMid meet">
<metadata>
Created by potrace 1.14, written by Peter Selinger 2001-2017
</metadata>
<g transform="translate(0.000000,558.000000) scale(0.100000,-0.100000)"
fill="#000000" stroke="none">
<path d="M880 5542 c-30 -2 -59 -7 -64 -12 -5 -5 0 -7 13 -3 11 3 21 1 21 -4
0 -5 51 -9 113 -9 61 0 155 -2 207 -3 52 -1 120 0 150 4 35 5 72 2 100 -6 45
-12 62 -13 244 -5 70 3 96 2 88 -6 -16 -16 -447 -27 -485 -12 -9 3 -32 -1 -50
-9 -27 -13 -58 -15 -162 -11 -72 3 -325 6 -563 8 -472 3 -454 5 -434 -53 7
-20 7 -32 -1 -40 -6 -6 -7 -11 -1 -11 6 0 7 -24 3 -62 -10 -102 3 -441 17
-457 2 -2 5 52 5 120 2 183 3 188 12 182 6 -3 6 -71 2 -162 -9 -184 -8 -248 5
-270 7 -12 9 -5 10 25 0 22 5 45 12 52 9 9 9 12 0 12 -9 0 -11 27 -10 98 l2
97 3 -88 c3 -74 6 -85 17 -74 8 7 16 22 18 33 3 10 5 -46 6 -126 0 -88 -3
-137 -8 -125 -8 20 -13 -80 -12 -290 0 -127 -16 -67 -24 90 -7 130 -14 162
-15 72 0 -31 -1 -72 -1 -90 -1 -19 1 -38 3 -43 3 -5 4 -26 4 -46 -1 -21 3 -38
8 -38 5 0 3 -8 -4 -17 -10 -11 -10 -14 -2 -9 9 5 13 0 14 -16 0 -13 3 -32 5
-43 3 -11 7 -94 9 -183 3 -140 2 -163 -11 -158 -11 4 -14 -8 -13 -72 0 -53 3
-71 9 -57 5 12 9 -48 8 -155 0 -96 -3 -167 -7 -156 -4 10 -7 52 -6 92 0 44 -3
70 -8 65 -9 -9 -10 -108 -2 -171 3 -19 7 -69 10 -110 3 -41 8 -93 10 -115 13
-130 16 -223 6 -230 -6 -3 -9 -11 -6 -16 4 -5 8 -231 11 -501 3 -271 7 -590 9
-708 1 -118 3 -273 4 -343 0 -71 5 -126 9 -123 4 2 7 57 7 120 0 64 2 116 5
116 10 0 5 -241 -5 -248 -13 -9 -18 -62 -6 -62 5 0 8 11 6 25 -1 14 2 25 6 25
5 0 9 -60 10 -132 0 -73 2 -142 4 -153 2 -11 6 -42 10 -70 3 -27 10 -70 14
-95 4 -25 7 -163 7 -307 -1 -144 1 -259 3 -257 7 7 8 15 16 174 19 398 32
1235 18 1243 -7 4 -10 -23 -9 -73 1 -44 -2 -87 -6 -97 -5 -14 -7 -11 -7 10 -5
172 -19 396 -27 409 -3 5 -5 72 -4 151 3 285 2 449 -5 797 -3 195 -6 488 -5
650 2 280 2 422 0 625 -1 50 0 99 3 110 2 11 3 23 1 26 -5 9 -16 641 -13 769
1 63 1 124 1 135 -1 11 -4 64 -8 117 l-6 96 573 1 c316 0 583 0 594 0 11 0 54
1 95 2 161 5 962 2 1276 -5 436 -9 870 -10 883 -2 5 4 420 8 921 11 845 3 910
2 911 -13 1 -9 1 -42 1 -72 0 -30 2 -46 5 -35 3 11 11 27 18 35 14 17 26 82
13 74 -4 -3 -8 6 -8 20 0 29 -22 35 -90 24 -64 -10 -192 -8 -160 2 14 5 -65 6
-175 4 -184 -5 -559 -7 -613 -5 -13 1 -21 5 -18 9 3 5 -38 7 -90 5 -52 -2 -94
1 -94 6 0 5 22 9 49 9 61 1 214 12 244 18 19 4 68 4 267 2 25 -1 86 2 135 7
136 11 229 10 222 -2 -3 -5 74 -8 171 -7 98 0 182 -2 188 -4 8 -2 12 -75 12
-245 0 -133 4 -253 9 -267 14 -35 17 -160 3 -140 -15 23 -16 -23 -6 -417 5
-183 3 -233 -6 -233 -9 0 -8 -3 2 -10 9 -6 10 -10 3 -10 -8 0 -11 -80 -8 -317
2 -175 7 -346 11 -380 4 -40 3 -63 -3 -63 -7 0 -7 -17 -1 -47 8 -44 6 -120 -7
-228 -11 -91 -13 -150 -5 -160 10 -12 18 -75 25 -199 2 -44 8 -83 13 -88 9 -9
7 103 -3 129 -2 7 -1 14 4 17 11 7 16 87 13 266 -1 106 2 160 8 150 6 -10 8
80 6 245 -2 143 0 286 4 317 3 32 3 61 -1 65 -10 11 -16 212 -6 206 5 -3 5 3
0 13 -5 11 -11 66 -12 124 -2 58 -4 122 -5 143 -2 24 2 41 10 44 19 7 30 179
13 200 -8 9 -9 14 -3 10 12 -7 29 21 19 31 -3 3 -5 0 -5 -6 0 -7 -4 -12 -9
-12 -5 0 -9 102 -10 237 -1 232 5 301 12 150 3 -43 8 -81 12 -85 6 -6 0 230
-11 388 -1 25 -3 64 -3 87 -1 36 -4 42 -18 37 -16 -5 -16 -4 -2 5 12 8 16 23
15 53 l-2 43 -65 5 c-59 5 -61 6 -24 11 l40 6 -48 1 c-27 1 -46 -1 -44 -5 3
-5 -23 -7 -56 -6 -34 1 -98 2 -142 3 -44 1 -72 5 -62 9 10 4 -192 6 -448 4
-364 -2 -470 -5 -483 -15 -9 -7 -13 -8 -10 -3 4 6 -19 10 -60 10 -37 1 -123 4
-192 8 -112 6 -122 5 -95 -7 17 -8 23 -15 15 -16 -8 -1 -26 -3 -40 -5 -27 -3
-102 14 -110 26 -8 11 -183 14 -200 4 -21 -13 -78 -14 -150 -3 -70 12 -1197
13 -1262 2 -21 -3 -40 -9 -43 -13 -2 -5 -35 -7 -72 -5 -37 1 -93 3 -123 4 -49
1 -53 2 -33 13 18 10 -22 12 -210 14 -128 2 -338 4 -467 5 -129 2 -260 2 -290
0z m4672 -265 c2 -62 0 -97 -7 -97 -5 0 -3 -5 5 -10 9 -6 10 -10 3 -10 -6 0
-14 -17 -16 -37 -2 -21 -3 27 -2 107 3 158 3 155 9 149 3 -2 6 -48 8 -102z
m-5411 -258 c-1 -142 -10 -192 -12 -66 -2 156 0 212 7 204 4 -3 6 -65 5 -138z
m5416 64 c-2 -16 -4 -5 -4 22 0 28 2 40 4 28 2 -13 2 -35 0 -50z m-10 -1820
c-3 -10 -5 -4 -5 12 0 17 2 24 5 18 2 -7 2 -21 0 -30z"/>
<path d="M65 5519 c-4 -6 -13 -8 -20 -5 -13 5 -30 -22 -20 -32 3 -3 5 -1 5 5
0 6 10 11 23 11 74 2 456 10 530 11 48 1 87 4 87 9 0 4 -131 7 -290 7 -160 1
-290 -3 -290 -7 0 -4 -5 -8 -11 -8 -5 0 -7 5 -4 10 3 6 4 10 1 10 -3 0 -8 -5
-11 -11z"/>
<path d="M5518 5513 c6 -2 18 -2 25 0 6 3 1 5 -13 5 -14 0 -19 -2 -12 -5z"/>
<path d="M29 5468 c-5 -18 -6 -38 -1 -34 7 8 12 36 6 36 -2 0 -4 -1 -5 -2z"/>
<path d="M21 5374 c0 -11 3 -14 6 -6 3 7 2 16 -1 19 -3 4 -6 -2 -5 -13z"/>
<path d="M21 5334 c0 -11 3 -14 6 -6 3 7 2 16 -1 19 -3 4 -6 -2 -5 -13z"/>
<path d="M20 5301 c0 -6 4 -13 10 -16 6 -3 7 1 4 9 -7 18 -14 21 -14 7z"/>
<path d="M739 5163 c-8 -1 -66 -4 -129 -5 l-115 -3 1 -310 c1 -170 3 -376 5
-457 1 -81 0 -151 -4 -154 -4 -4 -7 19 -8 52 0 104 -9 147 -35 174 l-24 25 5
-140 c3 -77 7 -207 10 -290 6 -186 16 -450 30 -815 3 -74 7 -204 10 -289 3
-84 10 -162 16 -173 16 -31 18 -47 24 -274 5 -205 5 -214 -13 -214 -18 0 -19
-8 -16 -152 6 -291 14 -734 20 -1063 3 -181 7 -384 9 -450 1 -66 3 -145 4
-176 l1 -56 1878 0 c1032 1 1961 -2 2065 -5 123 -4 187 -3 187 3 0 7 83 9 240
6 216 -4 240 -3 241 12 0 9 0 112 1 229 0 116 3 212 7 212 4 0 9 80 10 178 3
189 8 382 10 395 0 4 7 7 15 7 9 0 12 12 10 43 -20 271 -32 1323 -15 1312 7
-4 11 16 12 62 0 37 3 178 5 312 3 205 2 248 -11 267 -13 20 -15 135 -18 831
l-3 808 -26 15 c-16 9 -28 25 -30 40 l-3 25 -150 1 c-82 1 -411 5 -730 9 -725
9 -1008 9 -1700 0 -777 -10 -782 -10 -799 -25 -17 -14 -79 -17 -398 -24 l-217
-4 -3 31 -3 32 -176 0 c-96 0 -182 -1 -190 -2z"/>
<path d="M5450 5134 c0 -8 -4 -12 -10 -9 -11 7 -13 -10 -12 -110 2 -118 4
-123 17 -40 18 106 23 175 13 175 -4 0 -8 -7 -8 -16z"/>
<path d="M5431 4874 c0 -11 3 -14 6 -6 3 7 2 16 -1 19 -3 4 -6 -2 -5 -13z"/>
<path d="M32 4730 c0 -19 3 -44 8 -55 8 -18 9 -18 8 5 0 14 -4 39 -8 55 l-8
30 0 -35z"/>
<path d="M5450 4703 c-20 -43 -24 -506 -4 -544 19 -38 18 -88 -3 -112 -10 -11
-13 -17 -6 -14 17 10 28 -13 13 -26 -10 -9 -11 -9 -5 2 6 10 4 12 -4 7 -9 -6
-11 -80 -8 -314 2 -169 1 -287 -3 -262 l-7 45 -1 -53 c-2 -38 1 -51 10 -46 7
5 8 3 3 -7 -5 -7 -9 -52 -10 -99 0 -47 -2 -89 -4 -95 -2 -5 -3 -23 -2 -38 1
-33 21 -27 21 6 0 15 3 18 9 9 4 -7 9 76 10 185 1 109 3 218 5 243 1 25 -3 51
-8 59 -8 11 -8 13 0 8 6 -3 11 0 11 8 0 8 -4 12 -9 9 -4 -3 -8 37 -8 88 -1 51
-2 123 -4 160 -1 38 -1 66 1 64 7 -7 11 -38 12 -88 1 -27 4 -48 9 -48 4 0 4
84 1 187 -3 104 -5 302 -5 441 1 138 1 252 0 252 0 0 -7 -12 -14 -27z"/>
<path d="M20 4283 c0 -45 -4 -84 -9 -87 -7 -5 -8 -25 -2 -58 3 -20 16 -5 17
20 1 15 4 61 7 103 3 42 1 82 -4 90 -5 9 -9 -16 -9 -68z"/>
<path d="M5545 4340 c3 -5 8 -10 11 -10 2 0 4 5 4 10 0 6 -5 10 -11 10 -5 0
-7 -4 -4 -10z"/>
<path d="M5560 3942 l5 -77 3 69 c2 38 -1 73 -5 77 -4 4 -6 -27 -3 -69z"/>
<path d="M5472 3790 c0 -14 2 -19 5 -12 2 6 2 18 0 25 -3 6 -5 1 -5 -13z"/>
<path d="M5451 3124 c0 -11 3 -14 6 -6 3 7 2 16 -1 19 -3 4 -6 -2 -5 -13z"/>
<path d="M5426 2950 c-9 -34 0 -400 11 -425 12 -30 20 98 10 160 -12 69 -15
175 -6 207 4 15 4 40 0 55 l-8 28 -7 -25z"/>
<path d="M5499 2505 c0 -88 -1 -173 -2 -190 -1 -21 3 -30 15 -33 15 -3 17 4
13 59 -3 41 0 68 8 78 9 12 9 13 0 7 -10 -5 -13 3 -13 31 -1 61 -12 198 -17
203 -2 2 -4 -68 -4 -155z m8 -207 c-3 -8 -6 -5 -6 6 -1 11 2 17 5 13 3 -3 4
-12 1 -19z"/>
<path d="M5420 2435 c-4 -21 2 -132 10 -170 l8 -40 3 35 c1 19 2 42 2 50 -2
30 -21 135 -23 125z"/>
<path d="M5494 2246 c3 -16 8 -31 11 -35 3 -3 4 7 1 23 -3 16 -8 31 -11 35 -3
3 -4 -7 -1 -23z"/>
<path d="M5523 2170 c0 -41 2 -58 4 -37 2 20 2 54 0 75 -2 20 -4 3 -4 -38z"/>
<path d="M5500 2180 c0 -11 -1 -22 -2 -25 0 -2 -4 -25 -8 -50 -5 -34 -4 -42 5
-35 12 10 21 130 11 130 -4 0 -6 -9 -6 -20z"/>
<path d="M5423 1980 c0 -30 2 -43 4 -27 2 15 2 39 0 55 -2 15 -4 2 -4 -28z"/>
<path d="M5491 1635 c0 -63 3 -104 8 -97 12 19 14 153 2 182 -7 19 -10 -2 -10
-85z"/>
<path d="M5418 1403 c-6 -265 2 -675 13 -638 5 16 6 97 3 180 -3 82 -6 234 -6
338 0 103 -2 187 -4 187 -2 0 -5 -30 -6 -67z"/>
<path d="M5490 1360 c4 -33 3 -50 -4 -50 -6 0 -5 -4 2 -9 8 -4 13 -11 13 -15
-1 -3 0 -9 0 -13 1 -5 1 -32 0 -61 -1 -29 2 -60 7 -69 7 -11 10 0 12 38 3 72
3 81 -3 104 -3 11 -6 44 -6 73 -1 36 -5 52 -14 52 -10 0 -12 -12 -7 -50z"/>
<path d="M5199 1239 c-5 -138 3 -419 11 -414 9 5 4 444 -4 453 -3 3 -7 -15 -7
-39z"/>
<path d="M161 1114 c0 -11 3 -14 6 -6 3 7 2 16 -1 19 -3 4 -6 -2 -5 -13z"/>
<path d="M5500 808 c0 -94 -5 -99 -15 -13 -3 33 -8 61 -10 64 -3 2 -4 -87 -2
-197 2 -193 11 -251 20 -130 3 38 2 56 -5 52 -7 -5 -8 11 -3 47 11 79 11 81
24 112 14 35 15 147 1 147 -6 0 -10 -34 -10 -82z"/>
<path d="M5421 725 c-6 -30 -9 -179 -4 -188 10 -17 23 17 22 63 0 46 -15 143
-18 125z"/>
<path d="M5483 435 c0 -8 4 -12 9 -9 5 3 6 10 3 15 -9 13 -12 11 -12 -6z"/>
<path d="M5479 223 c0 -5 -2 -39 -5 -78 -3 -38 -8 -73 -13 -78 -5 -5 -38 -6
-74 -2 -59 6 -65 9 -62 27 3 12 1 17 -3 14 -4 -4 -7 -13 -7 -19 0 -7 -9 -11
-20 -10 -11 1 -41 3 -67 4 -26 1 -45 6 -42 11 3 4 -14 8 -38 8 -24 0 -54 3
-67 7 -18 4 -22 3 -17 -6 6 -10 -6 -12 -51 -10 -33 1 -65 -1 -71 -5 -7 -4 -12
-3 -12 2 0 11 -104 29 -137 24 -43 -6 -23 -21 35 -25 53 -4 -273 1 -523 8 -96
3 -107 1 -90 -11 10 -8 14 -14 8 -14 -6 0 -16 7 -23 15 -14 17 -35 20 -24 4 4
-7 1 -10 -7 -7 -12 4 -39 -13 -39 -25 0 -2 15 -4 33 -4 17 0 95 -3 172 -8 77
-5 183 -7 235 -6 137 4 169 4 330 -3 80 -4 245 -8 368 -10 217 -3 228 -2 223
27 -1 4 -1 45 -2 92 0 47 -3 85 -5 85 -2 0 -4 -3 -5 -7z m-1166 -150 c-13 -2
-35 -2 -50 0 -16 2 -5 4 22 4 28 0 40 -2 28 -4z"/>
<path d="M619 216 c-2 -2 -40 -7 -83 -10 -44 -3 -94 -8 -110 -11 -29 -4 -46
-7 -151 -22 -46 -6 -142 -40 -150 -53 -3 -4 -2 -15 1 -24 4 -12 15 -14 41 -10
19 3 40 1 46 -4 7 -5 41 -8 77 -6 82 5 436 15 555 17 50 0 119 -3 155 -7 36
-5 261 -8 500 -6 416 2 2092 4 2155 2 17 -1 57 1 90 4 l60 5 -25 -20 c-14 -11
-23 -22 -20 -24 10 -10 47 -12 48 -2 1 14 37 23 95 24 90 2 41 34 -73 47 -36
4 -68 8 -72 8 -3 1 -9 4 -13 7 -3 4 42 5 100 3 58 -1 105 -1 105 1 0 2 -25 9
-56 15 -70 15 -185 20 -178 9 3 -5 0 -9 -5 -9 -6 0 -11 -5 -11 -11 0 -6 8 -8
18 -5 15 5 15 4 -2 -8 -14 -12 -52 -14 -172 -13 -100 1 -150 5 -144 11 5 5 48
10 95 10 47 1 85 4 85 9 0 4 -12 7 -27 8 -16 0 -44 2 -64 5 -63 8 -229 9 -231
2 -4 -8 -714 -13 -778 -5 -110 14 -272 19 -805 22 -545 4 -957 12 -1000 20
-11 2 -28 4 -38 4 -10 1 -15 6 -12 11 6 10 2 14 -6 6z"/>
<path d="M658 213 c7 -3 16 -2 19 1 4 3 -2 6 -13 5 -11 0 -14 -3 -6 -6z"/>
<path d="M698 213 c7 -3 16 -2 19 1 4 3 -2 6 -13 5 -11 0 -14 -3 -6 -6z"/>
<path d="M211 184 c0 -11 3 -14 6 -6 3 7 2 16 -1 19 -3 4 -6 -2 -5 -13z"/>
<path d="M2678 173 c18 -2 45 -2 60 0 15 2 0 4 -33 4 -33 0 -45 -2 -27 -4z"/>
<path d="M3590 140 c0 -6 18 -10 40 -10 52 0 52 14 0 17 -22 2 -40 -2 -40 -7z"/>
<path d="M3995 126 c39 -12 354 -22 343 -11 -3 3 -68 8 -144 10 -76 3 -161 7
-189 9 l-50 4 40 -12z"/>
<path d="M4358 113 c7 -3 16 -2 19 1 4 3 -2 6 -13 5 -11 0 -14 -3 -6 -6z"/>
<path d="M4515 112 c3 -3 38 -7 78 -9 39 -1 90 -5 112 -8 29 -4 37 -3 29 5 -6
6 -58 12 -118 14 -59 2 -104 1 -101 -2z"/>
<path d="M5276 102 c-3 -5 1 -9 9 -9 8 0 12 4 9 9 -3 4 -7 8 -9 8 -2 0 -6 -4
-9 -8z"/>
<path d="M5440 102 c0 -8 -19 -12 -52 -12 -63 0 -60 -6 5 -12 36 -4 50 -1 54
9 3 8 3 17 -1 20 -3 4 -6 1 -6 -5z"/>
<path d="M4000 69 c0 -5 12 -9 27 -9 30 0 27 9 -6 15 -11 2 -21 0 -21 -6z"/>
</g>
</svg>
